<?xml version="1.0" encoding="UTF-8" standalone="no"?>
<svg
   xmlns:dc="http://purl.org/dc/elements/1.1/"
   xmlns:cc="http://creativecommons.org/ns#"
   xmlns:rdf="http://www.w3.org/1999/02/22-rdf-syntax-ns#"
   xmlns:svg="http://www.w3.org/2000/svg"
   xmlns="http://www.w3.org/2000/svg"
   id="svg26"
   version="1.1"
   viewBox="0 0 800 800">
  <metadata
     id="metadata32">
    <rdf:RDF>
      <cc:Work
         rdf:about="">
        <dc:format>image/svg+xml</dc:format>
        <dc:type
           rdf:resource="http://purl.org/dc/dcmitype/StillImage" />
        <dc:title></dc:title>
      </cc:Work>
    </rdf:RDF>
  </metadata>
  <defs
     id="defs30" />
  <path
     d="M 0,400 V 0 H 800 V 800 H 0 Z M 503.5,218.5 v 1.5 l -0.3,0.2 q -0.2,0.3 -3.2,1.8 -3,1.5 -17,10.5 -14,9 -26.8,20.3 -12.7,11.2 -25,27 -12.2,15.7 -20.4,31.4 l -8.3,15.8 -0.5,1 -0.5,1 -0.5,1 -0.5,1 -0.5,1 -0.5,1 -0.3,-0.2 -0.2,-0.3 -0.2,-0.3 -0.3,-0.2 -0.3,-0.2 -0.2,-0.3 -0.2,-0.3 -0.3,-0.2 -0.5,-1.5 -0.5,-1.5 -0.5,-1 q -0.5,-1 -1.5,-3.5 -1,-2.5 -9.5,-17.5 -8.5,-15 -19.5,-29 -11,-14 -21,-23 -10,-9 -28,-21 l -18,-12 1,-3 q 1,-3 11.5,-18 10.5,-15 25.2,-30.8 14.8,-15.7 29.8,-28.2 15,-12.5 25,-19.5 10,-7 12.5,-6.5 2.5,0.5 19.5,13.5 17,13 28,22.7 11,9.8 25.2,27.3 14.3,17.5 20.8,28 6.5,10.5 6.5,12 z m -235.5,138 0.5,1.5 0.5,1.5 0.5,1.5 v 3 l -0.3,-0.2 -0.2,-0.3 -1,-0.5 -1,-0.5 -1,-0.5 -1,-0.5 -0.2,-0.3 -0.3,-0.2 -0.3,-0.2 -0.2,-0.3 -16.5,-9 q -16.5,-9 -34,-14.5 -17.5,-5.5 -24.5,-6.5 -7,-1 -31.8,-0.7 -24.7,0.2 -28.7,-15.3 -4,-15.5 -5,-24.5 -1,-9 -0.5,-31 0.5,-22 4.5,-42.5 4,-20.5 4.7,-21.7 0.8,-1.3 21.3,1.2 20.5,2.5 46.5,9 26,6.5 48,14.8 22,8.2 16.8,28.2 -5.3,20 -6.3,36.5 -1,16.5 1.5,35 2.5,18.5 5,27 2.5,8.5 3,10 z m 268,3.5 -1,0.5 -0.2,0.3 -0.3,0.2 -0.3,0.2 -0.2,0.3 -1,0.5 -1,0.5 -0.2,0.3 -0.3,0.2 -0.3,0.2 -0.2,0.3 -1,0.3 -1,0.2 0.2,-1.5 0.3,-1.5 0.5,-1.5 0.5,-1.5 4.5,-16 q 4.5,-16 5.5,-25 1,-9 0.5,-26 -0.5,-17 -4.5,-34.5 -4,-17.5 -5.5,-22.5 -1.5,-5 17.8,-12.8 19.2,-7.7 46.2,-14.7 27,-7 48.5,-9.5 21.5,-2.5 24.7,9.2 3.3,11.8 5.3,26.8 2,15 1.5,37 -0.5,22 -4,39 -3.5,17 -4.8,19.8 -1.2,2.7 -21.7,1.7 -20.5,-1 -36.5,1.5 -16,2.5 -31.8,8.2 -15.7,5.8 -27.4,12.6 -11.8,6.7 -12.8,7.2 z m -119,119 -0.5,1 -0.3,0.2 -0.2,0.3 -0.2,0.3 -0.3,0.2 -0.5,1 -0.5,1 -0.5,1 -0.5,1 -0.3,0.2 -0.2,0.3 h -3 l -0.2,-0.3 -0.3,-0.2 v -2 l 0.5,-2.5 0.5,-2.5 2,-19.5 q 2,-19.5 1.5,-41 -0.5,-21.5 -3.5,-40 -3,-18.5 4.5,-34.5 7.5,-16 16.8,-30.2 9.2,-14.3 13.2,-20 4,-5.8 7.8,-9.3 3.7,-3.5 11,-10 7.2,-6.5 7.2,-7.5 0,-1 17,-12.8 17,-11.7 19.5,-13.2 2.5,-1.5 4.3,-1.2 1.7,0.2 6.2,14.2 4.5,14 6,24.5 1.5,10.5 1,28 -0.5,17.5 -3.5,31 -3,13.5 -10.5,30.5 -7.5,17 -27,34.5 -19.5,17.5 -36,36.5 -16.5,19 -23.5,29.5 -7,10.5 -7.5,11.5 z m -30,-4 0.5,4 0.3,3 0.2,3 -1.5,-0.2 -1.5,-0.3 -0.2,-0.3 -0.3,-0.2 -0.5,-1 -0.5,-1 -0.3,-0.2 -0.2,-0.3 -0.2,-0.3 -0.3,-0.2 -0.5,-1 -0.5,-1 -9.3,-13.2 Q 363,452.5 349,436.5 335,420.5 318.5,405 302,389.5 298.8,386.2 295.5,383 289.5,369 q -6,-14 -9.5,-28.5 -3.5,-14.5 -3.5,-35.5 0,-21 4,-38.5 4,-17.5 6.3,-22.3 2.2,-4.7 9.4,-1 7.3,3.8 22,15.6 14.8,11.7 26,24 11.3,12.2 21.8,28.7 10.5,16.5 17.5,33 7,16.5 4,34 -3,17.5 -3,46.5 0,29 1,37.5 1,8.5 1.5,12.5 z m -23,6 0.5,1 0.5,1 0.5,1 0.3,2 0.2,2 -17,-0.2 q -17,-0.3 -25,-1.3 -8,-1 -25.5,-5.5 Q 281,476.5 265,469.5 249,462.5 232.5,452 216,441.5 202.2,429.8 188.5,418 174.5,401.5 160.5,385 151,369 l -9.5,-16 -0.5,-1 -0.5,-1 -0.3,-2 q -0.2,-2 25.3,-1.8 25.5,0.3 42.5,4.8 17,4.5 35,13.5 18,9 35.8,22.3 17.7,13.2 34.2,28.7 16.5,15.5 28.5,31 12,15.5 17,24 5,8.5 5.5,9.5 z m 84.5,7.5 H 433 l -0.2,-0.3 -0.3,-0.2 -0.3,-0.2 -0.2,-0.3 0.2,-0.3 0.3,-0.2 0.5,-1.5 0.5,-1.5 0.5,-1 0.5,-1 8,-13.5 q 8,-13.5 12.3,-19.5 4.2,-6 8,-9.5 3.7,-3.5 20.4,-20.3 16.8,-16.7 35.3,-30.2 18.5,-13.5 32.5,-21 14,-7.5 31.5,-13 17.5,-5.5 30,-7 12.5,-1.5 29,-0.8 16.5,0.8 13.7,7.8 -2.7,7 -12,21.2 -9.2,14.3 -20.7,27.3 -11.5,13 -25.5,25.5 -14,12.5 -31,23.5 -17,11 -36,19 -19,8 -37.5,12 -18.5,4 -23.5,4.5 -5,0.5 -20.5,0.5 z m -99,17 21.5,1 0.2,0.3 0.3,0.2 v 9 q 0,9 -2,15.5 -2,6.5 -6.7,13.3 -4.8,6.7 -13,13 -8.3,6.2 -24,12.4 -15.8,6.3 -32.8,9.8 -17,3.5 -43.5,3.5 -26.5,0 -43.5,-4 -17,-4 -32,-10.5 -15,-6.5 -29.5,-15.5 Q 130,544.5 111,528.2 92,512 82.2,501 72.5,490 55,468 37.5,446 28,430.5 18.5,415 18,411.5 17.5,408 19,406 20.5,404 30.2,395.2 40,386.5 57,377 q 17,-9.5 36,-16.5 19,-7 24,-7.5 5,-0.5 5.8,1.2 0.7,1.8 8.2,16.8 7.5,15 18.2,30.5 10.8,15.5 11.8,15.5 1,0 1.2,1 0.3,1 10.6,10.8 10.2,9.7 23.7,20.2 13.5,10.5 30.5,20 17,9.5 37,17.5 20,8 42,13 22,5 43.5,6 z m 77,11.5 v -9 l 0.3,-0.2 0.2,-0.3 24.5,-1.5 q 24.5,-1.5 48,-7.5 23.5,-6 46,-16 22.5,-10 40,-21.5 17.5,-11.5 31.7,-24.2 14.3,-12.8 25.3,-26.3 11,-13.5 20,-29.5 9,-16 11.7,-22.2 2.8,-6.3 16.8,-2.3 14,4 31.2,11.7 17.3,7.8 30.8,16.8 13.5,9 20.5,16.5 7,7.5 6.5,11 -0.5,3.5 -10.5,19.5 -10,16 -25.3,35.2 -15.2,19.3 -25.7,31.6 -10.5,12.2 -12.7,13.7 -2.3,1.5 -2.6,2.5 -0.2,1 -17.2,15.2 -17,14.3 -33,24.3 -16,10 -32,16.5 -16,6.5 -28.5,9.5 -12.5,3 -21,4 -8.5,1 -28,0.5 -19.5,-0.5 -37,-4 -17.5,-3.5 -33,-9.5 -15.5,-6 -24.5,-12.5 -9,-6.5 -14.2,-14.8 -5.3,-8.2 -6.8,-13.2 -1.5,-5 -1.5,-14 z"
     id="path2"
     style="fill:#ffffff;fill-rule:evenodd;stroke:#ffffff;stroke-width:0.5;opacity:0" />
  <path
     d="m 426.5,517 v -9 l 0.3,-0.2 0.2,-0.3 24.5,-1.5 q 24.5,-1.5 48,-7.5 23.5,-6 46,-16 22.5,-10 40,-21.5 17.5,-11.5 31.7,-24.2 14.3,-12.8 25.3,-26.3 11,-13.5 20,-29.5 9,-16 11.7,-22.2 2.8,-6.3 16.8,-2.3 14,4 31.2,11.7 17.3,7.8 30.8,16.8 13.5,9 20.5,16.5 7,7.5 6.5,11 -0.5,3.5 -10.5,19.5 -10,16 -25.3,35.2 -15.2,19.3 -25.7,31.6 -10.5,12.2 -12.7,13.7 -2.3,1.5 -2.6,2.5 -0.2,1 -17.2,15.2 -17,14.3 -33,24.3 -16,10 -32,16.5 -16,6.5 -28.5,9.5 -12.5,3 -21,4 -8.5,1 -28,0.5 -19.5,-0.5 -37,-4 -17.5,-3.5 -33,-9.5 -15.5,-6 -24.5,-12.5 -9,-6.5 -14.2,-14.8 -5.3,-8.2 -6.8,-13.2 -1.5,-5 -1.5,-14 z"
     id="path4"
     style="fill:#b4d881;fill-rule:evenodd;stroke:#b4d881;stroke-width:0.5" />
  <path
     d="m 349.5,505.5 21.5,1 0.2,0.3 0.3,0.2 v 9 q 0,9 -2,15.5 -2,6.5 -6.7,13.3 -4.8,6.7 -13,13 -8.3,6.2 -24,12.4 -15.8,6.3 -32.8,9.8 -17,3.5 -43.5,3.5 -26.5,0 -43.5,-4 -17,-4 -32,-10.5 -15,-6.5 -29.5,-15.5 Q 130,544.5 111,528.2 92,512 82.2,501 72.5,490 55,468 37.5,446 28,430.5 18.5,415 18,411.5 17.5,408 19,406 20.5,404 30.2,395.2 40,386.5 57,377 q 17,-9.5 36,-16.5 19,-7 24,-7.5 5,-0.5 5.8,1.2 0.7,1.8 8.2,16.8 7.5,15 18.2,30.5 10.8,15.5 11.8,15.5 1,0 1.2,1 0.3,1 10.6,10.8 10.2,9.7 23.7,20.2 13.5,10.5 30.5,20 17,9.5 37,17.5 20,8 42,13 22,5 43.5,6 z"
     id="path6"
     style="fill:#b3d880;fill-rule:evenodd;stroke:#b3d880;stroke-width:0.5" />
  <path
     d="m 536,360 -1,0.5 -0.2,0.3 -0.3,0.2 -0.3,0.2 -0.2,0.3 -1,0.5 -1,0.5 -0.2,0.3 -0.3,0.2 -0.3,0.2 -0.2,0.3 -1,0.3 -1,0.2 0.2,-1.5 0.3,-1.5 0.5,-1.5 0.5,-1.5 4.5,-16 q 4.5,-16 5.5,-25 1,-9 0.5,-26 -0.5,-17 -4.5,-34.5 -4,-17.5 -5.5,-22.5 -1.5,-5 17.8,-12.8 19.2,-7.7 46.2,-14.7 27,-7 48.5,-9.5 21.5,-2.5 24.7,9.2 3.3,11.8 5.3,26.8 2,15 1.5,37 -0.5,22 -4,39 -3.5,17 -4.8,19.8 -1.2,2.7 -21.7,1.7 -20.5,-1 -36.5,1.5 -16,2.5 -31.8,8.2 -15.7,5.8 -27.4,12.6 -11.8,6.7 -12.8,7.2 z"
     id="path8"
     style="fill:#b3d881;fill-rule:evenodd;stroke:#b3d881;stroke-width:0.5" />
  <path
     d="m 268,356.5 0.5,1.5 0.5,1.5 0.5,1.5 v 3 l -0.3,-0.2 -0.2,-0.3 -1,-0.5 -1,-0.5 -1,-0.5 -1,-0.5 -0.2,-0.3 -0.3,-0.2 -0.3,-0.2 -0.2,-0.3 -16.5,-9 q -16.5,-9 -34,-14.5 -17.5,-5.5 -24.5,-6.5 -7,-1 -31.8,-0.7 -24.7,0.2 -28.7,-15.3 -4,-15.5 -5,-24.5 -1,-9 -0.5,-31 0.5,-22 4.5,-42.5 4,-20.5 4.7,-21.7 0.8,-1.3 21.3,1.2 20.5,2.5 46.5,9 26,6.5 48,14.8 22,8.2 16.8,28.2 -5.3,20 -6.3,36.5 -1,16.5 1.5,35 2.5,18.5 5,27 2.5,8.5 3,10 z"
     id="path10"
     style="fill:#b3d880;fill-rule:evenodd;stroke:#b3d880;stroke-width:0.5" />
  <g
     id="g22"
     style="fill:#b4d881;fill-rule:evenodd;stroke:#b4d881;stroke-width:0.5">
    <path
       d="m 503.5,218.5 v 1.5 l -0.3,0.2 q -0.2,0.3 -3.2,1.8 -3,1.5 -17,10.5 -14,9 -26.8,20.3 -12.7,11.2 -25,27 -12.2,15.7 -20.4,31.4 l -8.3,15.8 -0.5,1 -0.5,1 -0.5,1 -0.5,1 -0.5,1 -0.5,1 -0.3,-0.2 -0.2,-0.3 -0.2,-0.3 -0.3,-0.2 -0.3,-0.2 -0.2,-0.3 -0.2,-0.3 -0.3,-0.2 -0.5,-1.5 -0.5,-1.5 -0.5,-1 q -0.5,-1 -1.5,-3.5 -1,-2.5 -9.5,-17.5 -8.5,-15 -19.5,-29 -11,-14 -21,-23 -10,-9 -28,-21 l -18,-12 1,-3 q 1,-3 11.5,-18 10.5,-15 25.2,-30.8 14.8,-15.7 29.8,-28.2 15,-12.5 25,-19.5 10,-7 12.5,-6.5 2.5,0.5 19.5,13.5 17,13 28,22.7 11,9.8 25.2,27.3 14.3,17.5 20.8,28 6.5,10.5 6.5,12 z"
       id="path12" />
    <path
       d="M 448.5,488.5 H 433 l -0.2,-0.3 -0.3,-0.2 -0.3,-0.2 -0.2,-0.3 0.2,-0.3 0.3,-0.2 0.5,-1.5 0.5,-1.5 0.5,-1 0.5,-1 8,-13.5 q 8,-13.5 12.3,-19.5 4.2,-6 8,-9.5 3.7,-3.5 20.4,-20.3 16.8,-16.7 35.3,-30.2 18.5,-13.5 32.5,-21 14,-7.5 31.5,-13 17.5,-5.5 30,-7 12.5,-1.5 29,-0.8 16.5,0.8 13.7,7.8 -2.7,7 -12,21.2 -9.2,14.3 -20.7,27.3 -11.5,13 -25.5,25.5 -14,12.5 -31,23.5 -17,11 -36,19 -19,8 -37.5,12 -18.5,4 -23.5,4.5 -5,0.5 -20.5,0.5 z"
       id="path14" />
    <path
       d="m 364,481 0.5,1 0.5,1 0.5,1 0.3,2 0.2,2 -17,-0.2 q -17,-0.3 -25,-1.3 -8,-1 -25.5,-5.5 Q 281,476.5 265,469.5 249,462.5 232.5,452 216,441.5 202.2,429.8 188.5,418 174.5,401.5 160.5,385 151,369 l -9.5,-16 -0.5,-1 -0.5,-1 -0.3,-2 q -0.2,-2 25.3,-1.8 25.5,0.3 42.5,4.8 17,4.5 35,13.5 18,9 35.8,22.3 17.7,13.2 34.2,28.7 16.5,15.5 28.5,31 12,15.5 17,24 5,8.5 5.5,9.5 z"
       id="path16" />
    <path
       d="m 387,475 0.5,4 0.3,3 0.2,3 -1.5,-0.2 -1.5,-0.3 -0.2,-0.3 -0.3,-0.2 -0.5,-1 -0.5,-1 -0.3,-0.2 -0.2,-0.3 -0.2,-0.3 -0.3,-0.2 -0.5,-1 -0.5,-1 -9.3,-13.2 Q 363,452.5 349,436.5 335,420.5 318.5,405 302,389.5 298.8,386.2 295.5,383 289.5,369 q -6,-14 -9.5,-28.5 -3.5,-14.5 -3.5,-35.5 0,-21 4,-38.5 4,-17.5 6.3,-22.3 2.2,-4.7 9.4,-1 7.3,3.8 22,15.6 14.8,11.7 26,24 11.3,12.2 21.8,28.7 10.5,16.5 17.5,33 7,16.5 4,34 -3,17.5 -3,46.5 0,29 1,37.5 1,8.5 1.5,12.5 z"
       id="path18" />
    <path
       d="m 417,479 -0.5,1 -0.3,0.2 -0.2,0.3 -0.2,0.3 -0.3,0.2 -0.5,1 -0.5,1 -0.5,1 -0.5,1 -0.3,0.2 -0.2,0.3 h -3 l -0.2,-0.3 -0.3,-0.2 v -2 l 0.5,-2.5 0.5,-2.5 2,-19.5 q 2,-19.5 1.5,-41 -0.5,-21.5 -3.5,-40 -3,-18.5 4.5,-34.5 7.5,-16 16.8,-30.2 9.2,-14.3 13.2,-20 4,-5.8 7.8,-9.3 3.7,-3.5 11,-10 7.2,-6.5 7.2,-7.5 0,-1 17,-12.8 17,-11.7 19.5,-13.2 2.5,-1.5 4.3,-1.2 1.7,0.2 6.2,14.2 4.5,14 6,24.5 1.5,10.5 1,28 -0.5,17.5 -3.5,31 -3,13.5 -10.5,30.5 -7.5,17 -27,34.5 -19.5,17.5 -36,36.5 -16.5,19 -23.5,29.5 -7,10.5 -7.5,11.5 z"
       id="path20" />
  </g>
</svg>
